<svg width="16" height="16" viewBox="0 0 16 16" fill="none" xmlns="http://www.w3.org/2000/svg">
<path d="M10.6663 15.1667H1.99967C1.35967 15.1667 0.833008 14.64 0.833008 14V5.33334C0.833008 2.38668 2.38634 0.833344 5.33301 0.833344H10.6663C13.613 0.833344 15.1663 2.38668 15.1663 5.33334V10.6667C15.1663 13.6133 13.613 15.1667 10.6663 15.1667ZM5.33301 1.83334C2.94634 1.83334 1.83301 2.94668 1.83301 5.33334V14C1.83301 14.0933 1.90634 14.1667 1.99967 14.1667H10.6663C13.053 14.1667 14.1663 13.0533 14.1663 10.6667V5.33334C14.1663 2.94668 13.053 1.83334 10.6663 1.83334H5.33301Z" fill="#00B9FF"/>
<path d="M11.3337 6.83334H4.66699C4.39366 6.83334 4.16699 6.60668 4.16699 6.33334C4.16699 6.06001 4.39366 5.83334 4.66699 5.83334H11.3337C11.607 5.83334 11.8337 6.06001 11.8337 6.33334C11.8337 6.60668 11.607 6.83334 11.3337 6.83334Z" fill="#00B9FF"/>
<path d="M9.33366 10.1667H4.66699C4.39366 10.1667 4.16699 9.93999 4.16699 9.66666C4.16699 9.39332 4.39366 9.16666 4.66699 9.16666H9.33366C9.60699 9.16666 9.83366 9.39332 9.83366 9.66666C9.83366 9.93999 9.60699 10.1667 9.33366 10.1667Z" fill="#00B9FF"/>
</svg>
