<svg width="16" height="16" viewBox="0 0 16 16" fill="none" xmlns="http://www.w3.org/2000/svg">
<path d="M4.66634 7.16666H3.33301C1.71967 7.16666 0.833008 6.27999 0.833008 4.66666V3.33333C0.833008 1.71999 1.71967 0.833328 3.33301 0.833328H4.66634C6.27967 0.833328 7.16634 1.71999 7.16634 3.33333V4.66666C7.16634 6.27999 6.27967 7.16666 4.66634 7.16666ZM3.33301 1.83333C2.27967 1.83333 1.83301 2.27999 1.83301 3.33333V4.66666C1.83301 5.71999 2.27967 6.16666 3.33301 6.16666H4.66634C5.71967 6.16666 6.16634 5.71999 6.16634 4.66666V3.33333C6.16634 2.27999 5.71967 1.83333 4.66634 1.83333H3.33301Z" fill="#C2CEDB"/>
<path d="M12.6663 7.16666H11.333C9.71967 7.16666 8.83301 6.27999 8.83301 4.66666V3.33333C8.83301 1.71999 9.71967 0.833328 11.333 0.833328H12.6663C14.2797 0.833328 15.1663 1.71999 15.1663 3.33333V4.66666C15.1663 6.27999 14.2797 7.16666 12.6663 7.16666ZM11.333 1.83333C10.2797 1.83333 9.83301 2.27999 9.83301 3.33333V4.66666C9.83301 5.71999 10.2797 6.16666 11.333 6.16666H12.6663C13.7197 6.16666 14.1663 5.71999 14.1663 4.66666V3.33333C14.1663 2.27999 13.7197 1.83333 12.6663 1.83333H11.333Z" fill="#C2CEDB"/>
<path d="M12.6663 15.1667H11.333C9.71967 15.1667 8.83301 14.28 8.83301 12.6667V11.3333C8.83301 9.71999 9.71967 8.83333 11.333 8.83333H12.6663C14.2797 8.83333 15.1663 9.71999 15.1663 11.3333V12.6667C15.1663 14.28 14.2797 15.1667 12.6663 15.1667ZM11.333 9.83333C10.2797 9.83333 9.83301 10.28 9.83301 11.3333V12.6667C9.83301 13.72 10.2797 14.1667 11.333 14.1667H12.6663C13.7197 14.1667 14.1663 13.72 14.1663 12.6667V11.3333C14.1663 10.28 13.7197 9.83333 12.6663 9.83333H11.333Z" fill="#C2CEDB"/>
<path d="M4.66634 15.1667H3.33301C1.71967 15.1667 0.833008 14.28 0.833008 12.6667V11.3333C0.833008 9.71999 1.71967 8.83333 3.33301 8.83333H4.66634C6.27967 8.83333 7.16634 9.71999 7.16634 11.3333V12.6667C7.16634 14.28 6.27967 15.1667 4.66634 15.1667ZM3.33301 9.83333C2.27967 9.83333 1.83301 10.28 1.83301 11.3333V12.6667C1.83301 13.72 2.27967 14.1667 3.33301 14.1667H4.66634C5.71967 14.1667 6.16634 13.72 6.16634 12.6667V11.3333C6.16634 10.28 5.71967 9.83333 4.66634 9.83333H3.33301Z" fill="#C2CEDB"/>
</svg>
